<?xml version="1.0" encoding="UTF-8"?>
<svg id="Layer_1" xmlns="http://www.w3.org/2000/svg" version="1.1" viewBox="0 0 60 60">
  <!-- Generator: Adobe Illustrator 29.0.1, SVG Export Plug-In . SVG Version: 2.1.0 Build 192)  -->
  <defs>
    <style>
      .st0 {
        fill: #fff;
      }
    </style>
  </defs>
  <path class="st0" d="M3,1.5h33.8c11.3,1.1,18.9,11.6,16.6,22.7-1.2,5.9-5.5,11-11,13.3l-8.2-7.8v-.4c-.1,0,2,0,2,0,.6,0,2.4-.6,3-.9,6.6-3.3,6.8-12.8.2-16.3-.7-.4-2.3-1-3.1-1H12.7l-.2.2v8.7l-.2.2H3V1.5Z"/>
  <path class="st0" d="M12.6,23.7v9.8l.3.2c.1,0,1.7-1.8,2-2.1,2.3-2.3,5.4-4.9,7.5-7.3.2-.2.3-.3.3-.6h.3c0,0,34,33.2,34,33.2h-13.7c-6.4-6-12.6-12.3-19-18.3-.4-.3-.8-1-1.1-1.2-.1,0-.2-.1-.3-.1L3,56.8V23.7h9.5Z"/>
  <path class="st0" d="M23.6,48.2c.3-1.6,3-2,3.6-.3,0,0,.2.8.2.8v3.1l-.2.2h-3.7c.1-1.1-.2-2.6,0-3.7h0Z"/>
  <path class="st0" d="M18.6,48.4c.3-1.8,2.8-2.3,3.6-.7,0,0,.3.7.3.7v3.3l-.2.2h-3.5l-.2-.2c.1-1-.1-2.3,0-3.3h0Z"/>
  <polygon class="st0" points="22.4 57 18.6 57 18.6 53 22.3 53 22.4 53.2 22.4 57"/>
  <path class="st0" d="M27.4,53.2v3.7l-.2.2h-3.7v-3.8l.2-.2h3.4s.2.2.3.1Z"/>
</svg>