<?xml version="1.0" encoding="UTF-8"?><svg id="Layer_1" xmlns="http://www.w3.org/2000/svg" viewBox="0 0 60 60"><path d="M3.019,1.468h33.796c11.315,1.133,18.871,11.569,16.591,22.726-1.204,5.894-5.477,11.01-11.019,13.292l-8.236-7.791-.118-.393h2.102c.622,0,2.37-.589,2.974-.889,6.628-3.287,6.786-12.835.226-16.286-.71-.373-2.317-1.003-3.086-1.003H12.732l-.17.17v8.748l-.17.17H3.019V1.468Z" style="fill:#117cff;"/><path d="M12.562,23.736v9.827l.284.175c.15-.001,1.742-1.76,2.041-2.052,2.314-2.263,5.44-4.878,7.503-7.265.151-.175.258-.331.287-.567l.335.053,33.968,33.118h-13.689c-6.392-6.024-12.573-12.287-18.975-18.289-.365-.343-.832-.996-1.135-1.25-.11-.092-.187-.143-.339-.122L3.019,56.797V23.736h9.543Z" style="fill:#117cff;"/><path d="M23.581,48.22c.267-1.607,2.965-2.011,3.641-.346.037.091.222.759.222.801v3.068l-.17.17h-3.692c.131-1.117-.177-2.627,0-3.692Z" style="fill:#117cff;"/><path d="M18.583,48.447c.256-1.82,2.758-2.279,3.568-.728.051.097.295.688.295.728v3.295l-.17.17h-3.522l-.17-.17c.103-1.026-.14-2.304,0-3.295Z" style="fill:#117cff;"/><polygon points="22.445 57.025 18.583 57.025 18.583 53.048 22.275 53.048 22.445 53.218 22.445 57.025" style="fill:#117cff;"/><path d="M27.444,53.162v3.692l-.17.17h-3.692v-3.806l.17-.17h3.408c.038,0,.172.151.284.114Z" style="fill:#117cff;"/></svg>