<?xml version="1.0" encoding="UTF-8"?><svg id="Layer_1" xmlns="http://www.w3.org/2000/svg" viewBox="0 0 54.916 33.073"><path d="M14.657,0h16.035c5.368.538,8.953,5.489,7.872,10.782-.571,2.796-2.599,5.224-5.228,6.306l-3.908-3.696-.056-.186h.997c.295,0,1.124-.279,1.411-.422,3.145-1.56,3.22-6.09.107-7.727-.337-.177-1.099-.476-1.464-.476h-11.158l-.081.081v4.151l-.081.081h-4.447V0h0Z" style="fill:#ff3;"/><path d="M19.185,10.565v4.662l.135.083c.071,0,.826-.835.968-.974,1.098-1.074,2.581-2.314,3.56-3.447.072-.083.122-.157.136-.269l.159.025,16.116,15.713h-6.495c-3.033-2.858-5.965-5.83-9.003-8.677-.173-.163-.395-.473-.539-.593-.052-.044-.089-.068-.161-.058l-9.405,9.22v-15.686h4.529Z" style="fill:#ff3;"/><path d="M24.413,22.181c.127-.762,1.407-.954,1.727-.164.018.043.105.36.105.38v1.456l-.081.081h-1.752c.062-.53-.084-1.246,0-1.752h.001Z" style="fill:#ff3;"/><path d="M22.041,22.289c.121-.864,1.309-1.081,1.693-.345.024.046.14.326.14.345v1.563l-.081.081h-1.671l-.081-.081c.049-.487-.066-1.093,0-1.563h0Z" style="fill:#ff3;"/><polygon points="23.874 26.359 22.041 26.359 22.041 24.472 23.793 24.472 23.874 24.552 23.874 26.359" style="fill:#ff3;"/><path d="M26.246,24.526v1.752l-.081.081h-1.752v-1.806l.081-.081h1.617c.018,0,.082.072.135.054Z" style="fill:#ff3;"/><path d="M.001,28.097c.361-.061.895-.107,1.491-.107.736,0,1.252.113,1.606.393.296.235.459.584.459,1.04,0,.629-.449,1.067-.876,1.22v.023c.344.139.538.468.663.924.154.562.303,1.209.4,1.401h-1.149c-.076-.144-.2-.542-.341-1.157-.138-.62-.347-.786-.808-.792h-.334v1.948H0v-4.894h.001ZM1.113,30.231h.439c.556,0,.889-.284.889-.715,0-.454-.311-.687-.824-.689-.269,0-.426.018-.505.038v1.367h.001Z" style="fill:#ff3;"/><path d="M5.444,28.029v2.854c0,.857.33,1.295.899,1.295.589,0,.913-.415.913-1.295v-2.854h1.122v2.785c0,1.531-.774,2.259-2.072,2.259-1.253,0-1.984-.695-1.984-2.272v-2.772h1.122Z" style="fill:#ff3;"/><path d="M9.351,28.029h1.112v2.193h.018c.109-.188.227-.367.341-.541l1.123-1.653h1.379l-1.642,2.112,1.728,2.85h-1.306l-1.221-2.139-.421.519v1.621h-1.112v-4.962h.001Z" style="fill:#ff3;"/><path d="M13.871,32.991v-4.962h1.307l1.03,1.82c.297.52.587,1.141.811,1.702l.019-.002c-.069-.656-.09-1.323-.09-2.073v-1.447h1.03v4.962h-1.175l-1.064-1.911c-.296-.536-.622-1.172-.862-1.753l-.025.002c.035.658.049,1.36.049,2.17v1.492h-1.03Z" style="fill:#ff3;"/><path d="M21.589,31.717l-.35,1.274h-1.16l1.514-4.962h1.468l1.545,4.962h-1.209l-.382-1.274h-1.427,0ZM22.849,30.881l-.309-1.055c-.085-.293-.173-.665-.25-.956h-.015c-.073.292-.148.669-.227.957l-.297,1.053h1.098Z" style="fill:#ff3;"/><path d="M25.268,28.029h1.122v4.022h1.974v.94h-3.096s0-4.962,0-4.962Z" style="fill:#ff3;"/><path d="M29.031,28.097c.295-.057.886-.107,1.448-.107.684,0,1.105.068,1.467.279.347.185.591.523.591.978,0,.437-.256.848-.815,1.055v.019c.567.149.988.581.988,1.216,0,.454-.209.809-.516,1.054-.364.292-.963.451-1.951.451-.553,0-.961-.036-1.213-.073v-4.872h0ZM30.143,29.997h.364c.594,0,.905-.247.905-.616,0-.377-.286-.576-.793-.576-.245,0-.384.016-.476.035,0,0,0,1.157,0,1.157ZM30.143,32.193c.108.018.241.02.43.02.509,0,.958-.197.958-.72,0-.497-.445-.695-1.005-.696h-.383v1.395h0Z" style="fill:#ff3;"/><path d="M34.592,28.029v2.854c0,.857.33,1.295.899,1.295.589,0,.913-.415.913-1.295v-2.854h1.122v2.785c0,1.531-.774,2.259-2.072,2.259-1.253,0-1.984-.695-1.984-2.272v-2.772h1.122Z" style="fill:#ff3;"/><path d="M38.535,31.833c.298.16.764.312,1.244.312.515,0,.788-.214.788-.541,0-.305-.236-.484-.831-.694-.828-.293-1.369-.745-1.369-1.469,0-.846.71-1.49,1.877-1.49.566,0,.975.113,1.267.25l-.248.9c-.197-.094-.554-.236-1.036-.236-.489,0-.722.226-.722.48,0,.315.275.454.919.698.878.328,1.285.784,1.285,1.486,0,.829-.634,1.539-2.001,1.539-.562,0-1.125-.153-1.401-.308l.227-.927h.001Z" style="fill:#ff3;"/><path d="M43.433,28.971h-1.339v-.942h3.819v.942h-1.358v4.02h-1.122s0-4.02,0-4.02Z" style="fill:#ff3;"/><path d="M47.129,31.717l-.35,1.274h-1.16l1.514-4.962h1.468l1.545,4.962h-1.209l-.382-1.274h-1.427.001ZM48.39,30.881l-.309-1.055c-.085-.293-.173-.665-.25-.956h-.015c-.073.292-.148.669-.227.957l-.297,1.053h1.098Z" style="fill:#ff3;"/><path d="M50.809,32.991v-4.962h1.307l1.03,1.82c.297.52.587,1.141.811,1.702l.019-.002c-.069-.656-.09-1.323-.09-2.073v-1.447h1.03v4.962h-1.175l-1.064-1.911c-.296-.536-.622-1.172-.862-1.753l-.025.002c.035.658.049,1.36.049,2.17v1.492h-1.03Z" style="fill:#ff3;"/></svg>