<?xml version="1.0" encoding="UTF-8"?><svg id="Layer_1" xmlns="http://www.w3.org/2000/svg" viewBox="0 0 60 60"><path d="M6.866,11.103l46.576.079c.709.184,1.511.843,1.628,1.583-.22,3.995.328,8.356.017,12.306-.261,3.31-2.918,5.673-6.164,5.967l-37.646.009c-9.365-.941-5.555-11.926-6.317-18.282.133-.834,1.101-1.527,1.906-1.662ZM6.853,12.695c-.419.14-.45.748-.484,1.122-.209,2.322-.278,9.871.239,11.908.475,1.869,1.87,3.107,3.686,3.629l38.989.082c2.671-.498,4.166-2.408,4.376-5.079.284-3.611-.152-7.7-.095-11.336l-.394-.32-46.318-.007Z" style="fill:#463cff;"/><path d="M24.756,48.88l-2.506-4.542c.793-.356,1.55-.7,1.749-1.651.568-2.712.432-6.391.746-9.244.029-.267.04-.55.362-.617l.757,9.681c.289,1.589,1.673,1.546,1.74,1.835l-2.413,4.355-.436.184Z" style="fill:#463cff;"/><path d="M37.775,44.245l-2.501,4.635-.436-.184-2.415-4.451c.989-.194,1.561-.746,1.742-1.739l.757-9.681c.323.067.333.35.362.617.316,2.872.194,6.498.746,9.244.168.836.932,1.421,1.744,1.559Z" style="fill:#463cff;"/><path d="M47.944,44.245l-2.5,4.636-.437-.185-2.394-4.218.158-.321c.916-.17,1.336-.788,1.563-1.65l.756-9.859c.273.092.324.899.354,1.16.306,2.657.17,6.416.755,8.878.196.825.88,1.494,1.743,1.559Z" style="fill:#463cff;"/><path d="M14.586,48.881l-2.503-4.546c-.006-.118,1.413-.288,1.711-1.506.623-2.539.479-6.299.791-9.021.022-.195.174-1.162.266-1.163l.844,9.862c.223,1.1.847,1.372,1.737,1.836.053.236-2.051,3.858-2.341,4.243-.153.203-.189.363-.505.295Z" style="fill:#463cff;"/><path d="M14.585,16.233c.762-.06.95-1.197,1.782-1.069-.026.957-1.145,1.271-1.515,2.14-.174.41-.54,2.472-.001,2.493,1.666-.776,2.5-1.557,2.75-3.459l.551-.103-.355,1.782c.682.107,1.298-.989,1.879-.551,1.567,1.179-1.437,1.674-.988,2.157l1.601.626c-.761.652-1.752-.345-2.714-.235-.296.034-1.871.739-1.92.951,1.081,1.707,2.834,1.126,4.459.801l-.104.551-1.501.342c-.335.33,1.243.808,1.341,1.068.353.387-.293,1.287-.683,1.225l-1.549-.867.355,1.961h-.53c-.168-.83-.264-1.822-.818-2.486-.227-.272-1.484-1.138-1.767-1.081-.643.13-.147,2.165.181,2.667.204.312,1.687,1.433,1.329,1.791-.832.129-1.02-1.008-1.782-1.069l-.167,1.884c-.324.141-.925.19-1.058-.216l-.026-1.668-1.782,1.069c.026-.957,1.145-1.271,1.515-2.14.174-.41.54-2.473.001-2.493-1.775.728-2.572,1.596-2.771,3.562h-.53s.354-1.961.354-1.961c-.084-.111-2.077,1.583-2.292.047-.099-.707,1.206-.866,1.58-1.386l-1.6-.539.082-.612c1.8.743,2.346.823,4.022-.1.138-.076.498-.044.351-.351-.13-.27-1.602-1.035-1.951-1.083-.876-.122-2.508,1.006-2.685-.076l1.784-.36c.096-.427-.076-.288-.233-.397-.278-.192-1.07-.458-1.176-.792-.127-2.321,2.082-.014,2.3-.238l-.355-1.961.537.12c.153,1.433.761,2.982,2.309,3.372.928.233.522-1.695.276-2.244-.388-.867-1.482-1.184-1.517-2.139.832-.129,1.02,1.008,1.782,1.069l.079-1.794c1.517-.72,1.157.785,1.172,1.794Z" style="fill:#463cff;"/><path d="M21.227,27.252c-.472-.473-.236-1.504.484-1.661l28.467-.084c1.348.03,1.634,1.789.184,1.975l-28.204-.002c-.277-.023-.734-.031-.931-.228Z" style="fill:#463cff;"/><path d="M22.03,22.52l27.795-.049c1.56-.106,2.201,1.585.538,1.979l-28.378-.006c-1.457-.068-1.307-1.77.046-1.923Z" style="fill:#463cff;"/></svg>