<?xml version="1.0" encoding="UTF-8"?><svg id="Layer_1" xmlns="http://www.w3.org/2000/svg" viewBox="0 0 60 60"><path d="M49.548,41.124l-10.151-10.151c.192-.661.164-1.37-.078-2.017l2.475-2.475c.664-.664.664-1.74,0-2.404-.482-.482-1.18-.612-1.781-.395l-10.373-10.373-10.047,10.047,10.354,10.354c-.247.613-.122,1.341.375,1.838h0c.664.664,1.74.664,2.404,0l2.475-2.475c.647.242,1.357.27,2.017.078l10.151,10.151c.265.265.603.413.949.445.846,1.423.976,3.114.309,4.62-.812,1.833-2.637,2.927-4.882,2.927-4.18,0-7.907-3.075-11.512-6.049-4.721-3.895-9.594-7.914-14.951-3.75-.15-.018-.302-.03-.457-.03-1.445,0-2.699.813-3.332,2.007-3.101,1.024-3.381,4.462-3.484,5.591-.125,1.343-1.735,2.126-1.735,2.126v2.85h3.212c-.226-.415-.354-.89-.354-1.394,0-1.614,1.308-2.92,2.92-2.92s2.92,1.306,2.92,2.92c0,.504-.129.979-.354,1.394h13.483c-.308-.746-.687-1.474-1.127-2.178h-5.696l4.853-1.232c-1.999-2.67-4.805-4.881-7.619-6.183-.198-.928-.739-1.726-1.482-2.263,1.633-.986,3.303-1.137,5.146-.485,2.292.812,4.61,2.725,7.065,4.75,3.817,3.149,7.763,6.405,12.503,6.405,2.88,0,5.238-1.44,6.306-3.854.857-1.935.716-4.091-.32-5.917.41-.6.35-1.425-.183-1.958ZM32.842,29.269c.14-.37.14-.782,0-1.152l1.558-1.558c.37.14.782.14,1.152,0l.678.678-2.71,2.71-.678-.678ZM37.811,30.452c-.039.272-.162.534-.371.743s-.471.332-.743.371c-.397.057-.816-.065-1.122-.371-.131-.131-.228-.283-.292-.444-.189-.474-.092-1.036.292-1.42.399-.399.988-.487,1.473-.269.142.064.275.152.391.269.306.306.428.724.371,1.122ZM37.173,26.295l-1.52-1.52-.471.471c-.114.114-.299.114-.412,0l-.471-.471-3.24,3.24.471.471c.114.114.114.299,0,.412l-.471.471,1.52,1.52-1.43,1.43-.408-.408-8.422-8.424,7.452-7.454,8.424,8.424.408.408-1.43,1.43Z" style="fill:#463cff;"/><path d="M13.843,22.629h0s11.176,11.177,11.176,11.177l1.351,1.349,6.356,6.356,1.472-1.474-16.742-16.742,12.122-12.124,16.744,16.744,1.472-1.474-6.356-6.356-1.349-1.349-11.176-11.176h0s-1.525-1.525-1.525-1.525c-.277-.277-.725-.277-1.002,0-.277.277-.277.725,0,1.002l1.525,1.525-1.007,1.007-1.525-1.525c-.277-.277-.726-.277-1.002,0-.277.277-.277.726,0,1.002l1.525,1.525-1.007,1.007-1.525-1.525c-.277-.277-.725-.277-1.002,0h0c-.277.277-.277.725,0,1.002l1.525,1.525-1.007,1.007-1.525-1.525c-.277-.277-.726-.277-1.002,0-.277.277-.277.725,0,1.002l1.525,1.525-1.007,1.007-1.525-1.525c-.277-.277-.725-.277-1.002,0-.277.277-.277.726,0,1.002l1.525,1.525-1.007,1.007-1.525-1.525c-.277-.277-.725-.277-1.002,0-.277.277-.277.725,0,1.002l1.525,1.525-1.007,1.007-1.525-1.525c-.277-.277-.725-.277-1.002,0-.277.277-.277.726,0,1.002l1.525,1.525-1.007,1.007-1.525-1.525c-.277-.277-.726-.277-1.002,0-.277.277-.277.725,0,1.002l1.525,1.525Z" style="fill:#463cff;"/><path d="M33.522,22.644l-3.24-3.24-.471.471c-.114.114-.299.114-.412,0l-.471-.471-3.24,3.24.471.471c.114.114.114.299,0,.412l-.471.471,3.24,3.24.471-.471c.114-.114.299-.114.412,0l.471.471,3.24-3.24-.471-.471c-.114-.114-.114-.299,0-.412l.471-.471ZM31.739,23.898l-1.558,1.558c-.37-.14-.782-.14-1.152,0l-1.558-1.558c.14-.37.14-.782,0-1.152l1.558-1.558c.37.14.782.14,1.152,0l1.558,1.558c-.14.37-.14.782,0,1.152Z" style="fill:#463cff;"/><circle cx="14.053" cy="52.644" r="1.856" transform="translate(-8.251 2.931) rotate(-9.217)" style="fill:#463cff;"/><path d="M40.411,45.541c.079.49.195.8.324.8s.246-.31.324-.8c.1-.62.582-1.102,1.202-1.202.49-.079.8-.195.8-.324s-.31-.245-.8-.324c-.62-.1-1.102-.582-1.202-1.202-.079-.49-.195-.8-.324-.8s-.245.31-.324.8c-.1.62-.582,1.102-1.202,1.202-.49.079-.8.195-.8.324s.31.246.8.324c.62.1,1.102.582,1.202,1.202Z" style="fill:#463cff;"/><path d="M51.837,34.116c-.62-.1-1.102-.582-1.202-1.202-.079-.49-.195-.8-.324-.8s-.246.31-.324.8c-.1.62-.582,1.102-1.202,1.202-.49.079-.8.195-.8.324s.31.245.8.324c.62.1,1.102.582,1.202,1.202.079.49.195.8.324.8s.246-.31.324-.8c.1-.62.582-1.102,1.202-1.202.49-.079.8-.195.8-.324s-.31-.246-.8-.324Z" style="fill:#463cff;"/><path d="M44.986,29.63c-.05-.31-.123-.506-.205-.506s-.155.196-.205.506c-.063.392-.368.697-.76.76-.31.05-.506.123-.506.205s.196.155.506.205c.392.063.697.368.76.76.05.31.123.506.205.506s.155-.196.205-.506c.063-.392.368-.697.76-.76.31-.05.506-.123.506-.205s-.196-.155-.506-.205c-.392-.063-.697-.368-.76-.76Z" style="fill:#463cff;"/><path d="M36.685,39.451c.05.31.123.506.205.506s.155-.196.205-.506c.063-.392.368-.697.76-.76.31-.05.506-.123.506-.205s-.196-.155-.506-.205c-.392-.063-.697-.368-.76-.76-.05-.31-.123-.506-.205-.506s-.155.196-.205.506c-.063.392-.368.697-.76.76-.31.05-.506.123-.506.205s.196.155.506.205c.392.063.697.368.76.76Z" style="fill:#463cff;"/></svg>