<?xml version="1.0" encoding="UTF-8"?><svg id="Layer_1" xmlns="http://www.w3.org/2000/svg" viewBox="0 0 60 60"><path d="M15.696,32.266c2.059-.223,4.033-.839,6.083-1.146,7.592-1.137,15.114-.269,22.597,1.146v-10.311c0-1.843,3.342-4.086,5.108-4.155,7.505-.294,7.886,11.104.342,11.146-.112,5.417,1.632,13.513-6.398,13.037v3.437c-.363.558-2.496.485-2.741.134l-.137-3.182-.559-.389-20.281.104-.444,3.586c-.332.231-2.313.263-2.622-.252v-3.437c-8.03.476-6.286-7.621-6.398-13.037-4.574.172-7.22-5.408-4.365-8.984,2.276-2.851,6.644-2.78,8.825.139.238.318.99,1.573.99,1.854v10.311Z" style="fill:#463cff;"/><path d="M42.954,30.607c-8.624-1.537-17.247-2.102-25.836,0v-8.414c0-.745-1.437-2.863-1.405-3.052,6.778-5.764,17.268-6.491,25.028-2.321.594.319,2.815,1.666,3.157,2.061.67.772-.945,2.359-.945,3.312v8.414Z" style="fill:#463cff;"/></svg>