<?xml version="1.0" encoding="UTF-8"?><svg id="Layer_1" xmlns="http://www.w3.org/2000/svg" viewBox="0 0 60 60"><path d="M34.864,39.033h-.003v9.48h10.464v-6.626h3.801v6.626h2.765v-9.48l-8.513-4.915-8.513,4.915ZM42.504,45.255h-4.24v-3.367h4.24v3.367Z" style="fill:#463cff;"/><polygon points="43.455 31.308 43.455 31.307 43.455 31.307 43.455 31.307 43.455 31.308 32.311 37.741 32.998 38.931 43.455 32.894 53.912 38.931 54.599 37.741 43.455 31.308" style="fill:#463cff;"/><path d="M31.042,21.523h-.004l-11.06-6.385-11.06,6.385v24.837h-2.579v2.128h2.579v.025h22.124v-.025h2.372v-2.128h-2.372v-24.837ZM20.783,35.869v-5.197h5.197v5.197h-5.197ZM25.98,37.679v5.197h-5.197v-5.197h5.197ZM20.783,28.861v-5.197h5.197v5.197h-5.197ZM13.775,35.869v-5.197h5.197v5.197h-5.197ZM18.972,37.679v5.197h-5.197v-5.197h5.197ZM13.775,28.861v-5.197h5.197v5.197h-5.197Z" style="fill:#463cff;"/><polygon points="19.878 11.486 5.401 19.845 6.293 21.39 19.877 13.547 33.462 21.39 34.355 19.845 19.878 11.486" style="fill:#463cff;"/></svg>