<?xml version="1.0" encoding="UTF-8"?><svg id="Layer_1" xmlns="http://www.w3.org/2000/svg" viewBox="0 0 60 60"><path d="M29.457,14.329c.206-.02,2.069,1.507,2.417,1.748,2.535,1.759,5.198,2.619,8.293,2.786.36.019,1.883-.095,2.034.097.067.084.071.185.068.287-.148,3.871.183,7.87,0,11.725-.353,7.434-5.638,13.28-12.822,14.843-4.905-1.122-9.111-4.225-11.246-8.82-2.526-5.436-1.017-12.052-1.434-17.89l.034-.179c.092-.132,1.745-.05,2.063-.067,2.698-.146,5.277-.867,7.558-2.313,1.061-.673,1.979-1.538,3.035-2.217ZM41.697,19.427c-3.268.116-6.46-.589-9.254-2.286-1.029-.625-1.925-1.448-2.923-2.116-.995.602-1.86,1.421-2.856,2.045-2.312,1.449-5.064,2.243-7.795,2.36-.247.011-1.465-.079-1.52.008l-.013,11.959c.486,6.325,4.615,11.459,10.619,13.385.352.113,1.241.436,1.554.42.404-.02,1.742-.491,2.193-.653,5.703-2.048,9.67-7.359,9.999-13.437l-.003-11.686Z" style="fill:#463cff;"/><path d="M11.727,47.87l1.551-.969c.039-.127.043-.418-.151-.405-.236.016-.709.283-1.027.326-1.368.187-2.289-.405-2.147-1.863.047-.488.299-.923.484-1.363.033-.077.134-.134.014-.201-.104-.059-.255-.06-.357.002-.155.095-.683.896-.886,1.102-.08.082-.202.222-.311.246-.177.038-1.531-.165-1.61-.317-.392-.76,1.308-.18,1.515-.301.254-.27.873-1.243,1.153-1.37.256-.117.751.207.924.141.191-.073.735-1.038,1.06-1.134-.376-.493-1.341.248-1.705.148-.073-.02-1.206-.785-1.255-.843-.092-.108-.108-.405-.011-.467.359-.228,1.072.643,1.449.699.36-.015.956-.357,1.277-.346.248.009.588.432.697.413l.652-.493c.151-.24-.375-.613-.384-.883l.221-1.621c.192-.18.922-1.187,1.191-.871.338.398-.509.784-.645,1.133-.052.134-.193,1.083-.186,1.228.009.198.256.437.332.629.171.112,1.015-.544,1.26-.593.209-.042.42.011.619-.02.289-.045.583-.226.951-.151.23-.444.259-.871-.134-1.226-.37-.334-1.648-.931-1.847-1.206-.23-.317-.004-.551.363-.435.189.06,1.514.944,1.725,1.116.663.543.766,1.119.483,1.926l.489.585c.621-.051,1.26-.114,1.705.423.181.218.992,1.763,1.08,2.045.124.396-.009.68-.424.458-.57-.817-.722-2.785-2.103-2.331-.018.344-.31.734-.375.978-.039.146.031.351-.067.585-.092.222-.813.936-.709,1.14.339.519,1.08.496,1.64.429.419-.05.841-.668,1.131-.644l.242.196c.08.31-.883.952-1.107.998-.248.051-1.362.056-1.602.001-.244-.055-.491-.43-.725-.552-.099.248-.627.562-.594.798.027.188.296.409.262.639-.046.312-.489.932-.489,1.225,0,.355.67,1.128.541,1.384-.066.129-.344.202-.455.132-.066-.042-.694-1.304-.709-1.392-.075-.449.674-1.151.414-1.65-.197.114-1.264.749-1.315.852-.125.253.198.748-.035,1.029-.185.223-1.191.691-1.491.888v1.314c0,.052-.225.219-.316.181-.074.004-.252-.146-.252-.181v-1.562ZM14.902,40.463c-.274.082-.232.515-.082.693.559.335,1.286,2.127,1.936,1.23.079-.946-.54-1.839-1.522-1.93-.112-.01-.221-.026-.332.007ZM14.141,40.946c-.105-.093-.978.497-1.129.61-1.2.892-2.632,2.488-2.491,4.077l4.229-3.622c.047-.054.028-.086,0-.141-.118-.23-.664-.521-.609-.924ZM11.017,46.2c2.033.301,4.028-1.369,5.111-2.947-.126-.126-.287-.163-.426-.282-.204-.173-.401-.61-.637-.5l-3.942,3.516-.106.213Z" style="fill:#463cff;"/><path d="M46.467,10.208l.059.413c.812-.388,1.671-.85,2.576-.482.923.375.971,1.41.8,2.261-.044.219-.233.607-.242.757-.013.221.257.202.418.058.252-.225.704-1.347.905-1.456.34-.057,1.826-.281,1.787.249-.034.466-1.094.125-1.417.282l-.94,1.509c-.251.243-.89-.051-1.048.05l-.851,1.283c.459.411,1.165-.462,1.65-.38.081.014,1.255.603,1.328.667.252.22.032.545-.265.482-.399-.085-.855-.561-1.252-.52-.292.03-.81.462-1.15.496-.293.029-.496-.219-.767-.278l-.578.565c-.101.239.373.483.449.759.093.338.13,1.199.089,1.548-.031.26-.701,1.461-1.09,1.175l-.102-.193c-.004-.276.575-.765.625-1.123.064-.463.07-1.41-.431-1.639-.266-.122-.877.583-1.207.711-.229.089-.391.042-.503.078-.316.102-.62.324-.995.357-.159.473-.061.924.384,1.179.392.224,1.807.715,2.02.927.15.15.044.462-.159.481-.209.02-2.155-.916-2.38-1.102-.506-.416-.568-1.013-.432-1.622l-.564-.512c-.259-.116-.896.429-1.667-.104-.196-.135-1.401-1.828-1.488-2.063-.047-.127-.099-.355.078-.415.136-.036.232-.014.35.058.362.22.914,1.604,1.355,1.911.286.199.722.224,1.021.048.101-.565.24-1.115.226-1.691l.624-1.185c-.27-.037-.385-.264-.675-.289-.167-.014-1.114.107-1.263.161-.187.069-.88,1.166-1.155.622-.151-.297.728-1.041,1.001-1.131.234-.077,1.335-.246,1.56-.222.228.024.581.297.78.424.142-.153.572-.679.522-.865s-.347-.276-.352-.653c-.005-.347.328-.934.278-1.265-.046-.308-.819-.954-.739-1.259.203-.771,1.306.912,1.361,1.135.1.406-.657,1.378-.081,1.633l1.098-1.038c.049-.169-.197-.588-.205-.778-.015-.335,1.15-1.071,1.386-1.379.093-.229-.499-1.682.198-1.479.284.083.392,1.404.391,1.716l-1.324,1.127ZM48.798,10.622c-.131,0-.25-.067-.382-.064-1.655.037-3.757,2.268-4.305,3.756.41-.141.854.664,1.135.535l3.552-4.227ZM49.26,11.049l-3.534,4.139c-.136.271.312.457.474.625.116.12.16.309.294.42.931-.601,1.741-1.516,2.271-2.484.41-.747.906-1.879.496-2.699ZM44.003,14.839c-.085.004-.235.114-.288.18-.32.398.303,1.34.685,1.598.468.316,1.907.486,1.419-.354-.084-.145-1.157-1.052-1.359-1.197-.111-.08-.324-.232-.457-.227Z" style="fill:#463cff;"/><path d="M44.607,43.573c.01-.197.312-.465.336-.614.01-.059-.111-1.072-.136-1.183-.079-.353-.747-.656-.768-1.015-.013-.231.201-.345.406-.262.054.022.774.776.807.832.067.116.295,1.545.28,1.702-.025.256-.53.685-.416.882l.735.488c.171-.073.468-.39.636-.399.314-.017,1.015.38,1.35.347.343-.033.931-.868,1.316-.675.162.113.197.272.076.433-.046.062-1.207.833-1.281.853-.359.099-1.315-.635-1.634-.148l.993,1.14.92-.149,1.212,1.351c.344.159,1.028-.246,1.39-.041.664.521-1.3.682-1.554.631-.122-.061-.206-.173-.299-.269-.184-.189-.776-1.038-.888-1.106-.098-.06-.247.063-.354.041.252.839.79,1.553.46,2.483-.474,1.338-2.211,1.037-3.229.57,0,.16-.038.322.065.467.195.273,1.361.704,1.465,1.021.069.21.064,1.476-.057,1.619-.078.092-.276.111-.379.026-.225-.186-.028-1.101-.116-1.414-.077-.132-1.329-.728-1.526-.958-.175-.203.041-.71.013-.979l-1.277-.918c-.427.568.435,1.127.305,1.793-.013.069-.592,1.193-.642,1.241-.089.086-.366.142-.448.022-.263-.384.533-1.143.531-1.46-.001-.289-.453-.855-.488-1.216-.036-.374.174-.447.27-.762l-.664-.682c-.045,0-.524.504-.725.55-.129.029-1.252.035-1.407.017-.341-.041-1.368-.691-1.233-1.092.149-.443.918.35,1.102.442.206.103,1.178.132,1.396.066.12-.036.366-.341.517-.411.109-.199-.72-1.009-.79-1.276-.084-.323-.129-.515-.228-.837-.124-.406.017-.744-.603-.711-1.05.055-1.251,2.242-1.779,2.49-.266.125-.444-.111-.376-.376.063-.247.718-1.534.881-1.824.434-.772,1.089-.965,1.929-.765l.487-.586c-.266-.846-.187-1.41.512-1.97.19-.152,1.621-1.1,1.77-1.148.29-.092.462.238.321.469-.16.262-1.605.923-1.956,1.311-.226.25-.27.505-.195.84.09.398.266.242.48.294.433.106.625.097,1.021.136.452.044.986.564,1.465.685ZM42.888,43.519c-.865.104-1.501.95-1.479,1.798.009.347.387.49.682.319.373-.215.936-1.205,1.344-1.496l.002-.497c-.159-.161-.342-.149-.549-.124ZM47.661,48.758c.144-2.067-1.888-3.951-3.62-4.758.117.34-.688.889-.607,1.067l4.228,3.692ZM47.236,49.254l-4.142-3.711-.12-.019c-.296.249-.524.673-.922.75,1.06,1.622,3.126,3.334,5.184,2.981Z" style="fill:#463cff;"/><path d="M15.278,22.659c.016-.058.173-.175.252-.181.091-.038.316.129.316.181v7.031c0,.035-.178.185-.252.181-.091.038-.316-.129-.316-.181v-7.031Z" style="fill:#463cff;"/><path d="M15.471,20.432c.546-.152.506,1.237.123,1.271-.472.057-.408-1.192-.123-1.271Z" style="fill:#463cff;"/><path d="M40.685,20.226c.08.111.08.241.091.371.294,3.496-.175,7.481-.075,11.01-.556,5.505-4.322,10.196-9.532,11.986-.343.118-1.354.465-1.655.481-.281.015-.788-.182-1.082-.268-5.682-1.672-9.748-6.695-10.175-12.621l.034-10.909c.093-.134,1.324-.114,1.566-.138,3.111-.317,5.676-1.297,8.227-3.065.3-.208,1.146-.993,1.434-.988.062.001.12.008.172.043,2.681,2.278,6.024,3.726,9.555,4.01.302.024,1.273-.077,1.438.089ZM32.464,22.694c-1.08-.593-2.132-2.575-3.552-1.954-.375.164-1.261,1.029-1.634,1.349-1.669,1.432-3.628,3.031-5.184,4.545-.111.108-.356.318-.416.436-.341.662.172,1.452.914,1.376l.07,9.056.389.108,13.126-.018c.064-.025.119-.069.163-.121.328-.388-.043-7.938.1-9.025.886.026,1.326-.879.749-1.566l-2.454-2.163v-3.267l-.107-.107h-2.059l-.107.107v1.243Z" style="fill:#463cff;"/><path d="M35.873,37.04h-4.048v-6.214c0-.114-.262-.664-.341-.795-.876-1.442-3.069-1.451-3.933,0-.08.134-.341.679-.341.795v6.214h-4.048v-8.913l6.103-5.33h.505s6.103,5.33,6.103,5.33v8.913ZM29.179,24.984c-1.502.255-1.515,2.633.071,2.877,2.221.342,2.344-3.288-.071-2.877Z" style="fill:#463cff;"/><path d="M27.777,30.826c.216-1.305,2.126-1.766,3.029-.793.089.096.45.697.45.793v6.214h-3.48v-6.214Z" style="fill:#463cff;"/><path d="M29.248,21.218c.169-.039.427-.036.593.016l6.926,5.999c.307.381-.044.866-.464.535l-6.354-5.505-.81-.018c-2.218,1.722-4.269,3.689-6.407,5.523-.634.277-.799-.2-.318-.673,1.713-1.686,3.997-3.583,5.86-5.148.215-.18.747-.678.974-.729Z" style="fill:#463cff;"/><path d="M34.24,24.186c-.074.083-1.207-.881-1.207-.959v-1.385h1.101l.107.107v2.237Z" style="fill:#463cff;"/><path d="M29.179,25.553c1.484-.383,1.666,1.738.338,1.763-1.093.021-1.185-1.545-.338-1.763Z" style="fill:#463cff;"/></svg>