<?xml version="1.0" encoding="UTF-8"?><svg id="Layer_1" xmlns="http://www.w3.org/2000/svg" viewBox="0 0 60 60"><path d="M37.436,29.671c-.417-.43-.883-1.774-1.478-1.774-.683,0-1.111,1.253-1.544,1.709-.414.437-1.999,1.212-1.999,1.754,0,.538,1.688,1.366,2.138,1.897.44.52.942,2.133,1.857,1.369.269-.225.585-1.133.95-1.511.394-.407,2.027-1.234,2.042-1.75.02-.651-1.522-1.236-1.967-1.694ZM35.749,32.838c-.145-.794-.918-.965-1.407-1.477.208-.397.855-.569,1.082-.815.151-.163.212-.744.533-.663.4.692.989,1.032,1.617,1.478l-1.824,1.477Z" style="fill:#463cff;"/><path d="M44.548,22.7c.299.308.907,1.539,1.048,1.625.963.59,1.451-1.155,1.986-1.677.433-.424,2.114-1.129,1.938-1.813-.113-.439-1.623-1.211-2.026-1.643-.442-.473-.883-1.883-1.653-1.674-.459.125-.903,1.39-1.274,1.763-.588.591-2.28.983-1.901,2.064.09.257,1.537,1,1.883,1.356ZM45.883,19.469c.173-.118.87.824,1.136,1.042.193.158.44.328.691.366-.504.59-1.381.833-1.55,1.687-.569-.467-.887-1.238-1.686-1.41-.239-.349,1.533-1.045,1.409-1.686Z" style="fill:#463cff;"/><path d="M4.672,7.439v45.121h50.655V7.439H4.672ZM54.765,51.998h-20.604l6.376-6.571c.1-.666-.533-.994-1.068-.632l-7.189,7.203h-9.942l7.619-7.863-.261-.671-.782.064-8.456,8.469H5.235v-7.576l7.921-7.901c1.195,1.09,1.991-.221,2.816-1.005l4.081,4.079c.597.393,1.055.34,1.625-.065.745-.53,4.288-4.097,4.853-4.858.35-.472.481-.812.286-1.418l-13.442-13.579c-.464-.38-1.16-.508-1.625-.065l-5.248,5.306.188,1.302,3.995,4.139c-.524.681-1.347.994-1.266,1.989.027.335.343.683.229.912l-4.412,4.349V8.002h20.603l-3.585,3.675c-.41.672.202,1.363.905.901l4.564-4.576h9.935l-12.587,12.833.047.463c.173.342.724.383.997.147l13.429-13.443h15.222v43.995ZM5.235,39.582l5.408-5.466,1.597,1.468-7.005,7.008v-3.009ZM17.731,31.643c-.608-.709-1.898-1.963-2.597-2.61-1.693-1.568-1.902-1.114-3.505.277l-3.887-3.86,4.567-4.583.355-.07,12.947,12.957c-.655.629-1.238,1.351-1.876,1.992-.755.758-1.6,1.45-2.351,2.226-.278.287-.219.684-.695.427l-3.798-3.8c.961-.98,2.001-1.603.842-2.955ZM13.555,29.481c.391.035,2.414,2.299,2.818,2.746.112.124.342.174.453.325l-.003.286-2.802,2.664-3.324-3.297,2.858-2.724Z" style="fill:#463cff;"/></svg>